<?xml version="1.0" encoding="UTF-8" standalone="no"?>
<svg
   version="1.1"
   id="svg2"
   sodipodi:docname="sun-new.svg"
   width="280cm"
   height="280cm"
   inkscape:version="1.2.1 (9c6d41e410, 2022-07-14)"
   inkscape:export-filename="sun.png"
   inkscape:export-xdpi="96"
   inkscape:export-ydpi="96"
   xmlns:inkscape="http://www.inkscape.org/namespaces/inkscape"
   xmlns:sodipodi="http://sodipodi.sourceforge.net/DTD/sodipodi-0.dtd"
   xmlns="http://www.w3.org/2000/svg"
   xmlns:svg="http://www.w3.org/2000/svg">
  <defs
     id="defs6" />
  <sodipodi:namedview
     id="namedview4"
     pagecolor="#505050"
     bordercolor="#ffffff"
     borderopacity="1"
     inkscape:showpageshadow="0"
     inkscape:pageopacity="0"
     inkscape:pagecheckerboard="1"
     inkscape:deskcolor="#151515"
     showgrid="true"
     inkscape:zoom="0.051770277"
     inkscape:cx="-1902.6361"
     inkscape:cy="6519.1847"
     inkscape:window-width="1920"
     inkscape:window-height="991"
     inkscape:window-x="-9"
     inkscape:window-y="-9"
     inkscape:window-maximized="1"
     inkscape:current-layer="svg2"
     inkscape:document-units="cm">
    <inkscape:grid
       type="xygrid"
       id="grid184"
       originx="5291.3386"
       originy="5291.3386"
       units="cm"
       spacingx="188.97638"
       spacingy="188.97638"
       empspacing="2" />
  </sodipodi:namedview>
  <rect
     style="fill:#00ffff;stroke:#000000;stroke-width:18.1236;paint-order:markers fill stroke;stop-color:#000000"
     id="rect394"
     width="10582.677"
     height="10582.678"
     x="-3.9999999e-05"
     y="-3.9999999e-05" />
  <path
     id="rect404"
     style="fill:#000000;stroke:#000000;stroke-width:37.79527559;paint-order:markers fill stroke;stop-color:#000000;stroke-opacity:1;stroke-dasharray:none"
     d="M 377.95312,377.95312 V 10204.725 H 10204.725 V 377.95312 Z M 755.90625,755.90625 H 9826.7715 V 9826.7715 H 755.90625 Z" />
  <path
     id="rect531"
     style="fill:#000000;stroke:#000000;stroke-width:37.79527559;paint-order:markers fill stroke;stop-color:#000000;stroke-opacity:1;stroke-dasharray:none"
     d="M 3023.6211 3023.6211 L 3023.6211 7559.0547 L 7559.0547 7559.0547 L 7559.0547 3023.6211 L 3023.6211 3023.6211 z M 3401.5742 3401.5742 L 7181.1016 3401.5742 L 7181.1016 7181.1016 L 3401.5742 7181.1016 L 3401.5742 3401.5742 z " />
  <path
     id="rect647"
     style="fill:#ffffff;stroke:none;stroke-width:40.7003;stroke-dasharray:none;stroke-opacity:1;paint-order:markers fill stroke;stop-color:#000000"
     d="m 0.60261797,-406.40063 -0.84970852,0.84971 -405.30382945,405.30382945 -0.84971,0.84970852 0.84971,0.84971933 V 4884.6375 h -0.84971 v 814.0044 h 0.84971 v 4883.1861 l -0.84971,0.849 0.84971,0.85 406.15353797,406.153 H 10582.677 l 407.003,-407.003 V 0.60261797 l -406.153,-406.15353797 -0.85,-0.84971 -0.849,0.84971 H 5698.6419 v -0.84971 h -814.0044 v 0.84971 H 1.4523373 Z M 407.60588,0.60261797 H 4884.6375 V 1425.1119 l -203.5016,203.5017 203.5016,203.5015 v 1628.011 l -203.5016,203.5016 203.5016,203.5017 v 610.5049 L 4477.6343,4070.631 V 3663.6277 H 4070.631 L 2442.62,2035.6168 v -407.0032 h -407.0032 z m 5291.03602,0 H 10175.674 L 8547.6626,1628.6136 h -407.0032 v 407.0032 L 6512.6485,3663.6277 h -407.0034 v 407.0033 l -407.0032,407.0053 v -610.5069 l 203.5017,-203.5017 -203.5017,-203.5016 v -1628.011 l 203.5017,-203.5015 -203.5017,-203.5017 z M 0.60261797,407.60588 1628.6136,2035.6168 V 2442.62 h 407.0032 l 1628.0109,1628.011 v 407.0033 h 407.0033 l 407.0033,407.0032 h -610.5049 l -203.5017,-203.5016 -203.5016,203.5016 h -1628.011 l -203.5015,-203.5016 -203.5017,203.5016 H 0.60261797 Z m 10582.07438203,0 V 4884.6375 H 9158.1675 l -203.5016,-203.5016 -203.5016,203.5016 H 7123.1554 l -203.5037,-203.5037 -203.5037,203.5037 h -610.5007 l 407.0012,-407.0032 h 407.0032 V 4070.631 L 8547.6626,2442.62 h 407.0033 V 2035.6168 Z M 0.60261797,5698.6419 H 1425.1119 l 203.5017,203.5017 203.5015,-203.5017 h 1628.011 l 203.5016,203.5017 203.5017,-203.5017 h 610.5069 l -407.0053,407.0032 h -407.0033 v 407.0034 L 2035.6168,8140.6594 h -407.0032 v 407.0032 L 0.60261797,10175.674 Z m 6105.04248203,0 H 6716.15 l 203.5017,203.5017 203.5017,-203.5017 h 1628.0109 l 203.5016,203.5017 203.5016,-203.5017 H 10582.677 V 10175.674 L 8954.6659,8547.6626 V 8140.6594 H 8547.6626 L 6919.6517,6512.6485 V 6105.6451 H 6512.6485 Z M 4884.6375,6105.6451 V 6716.15 l -203.5016,203.5017 203.5016,203.5017 v 1628.0109 l -203.5016,203.5016 203.5016,203.5016 V 10582.677 H 407.60588 L 2035.6168,8954.6659 H 2442.62 V 8547.6626 L 4070.631,6919.6517 h 407.0033 v -407.0032 z m 814.0044,0 407.0032,407.0034 v 407.0032 h 407.0034 l 1628.0109,1628.0109 v 407.0033 h 407.0032 L 10175.674,10582.677 H 5698.6419 V 9158.1675 l 203.5017,-203.5016 -203.5017,-203.5016 V 7123.1554 l 203.5037,-203.5037 -203.5037,-203.5037 z" />
</svg>
