<?xml version="1.0" encoding="UTF-8" standalone="no"?>
<svg
   version="1.1"
   id="svg2"
   sodipodi:docname="sun.svg"
   width="280cm"
   height="280cm"
   inkscape:version="1.2.1 (9c6d41e410, 2022-07-14)"
   xmlns:inkscape="http://www.inkscape.org/namespaces/inkscape"
   xmlns:sodipodi="http://sodipodi.sourceforge.net/DTD/sodipodi-0.dtd"
   xmlns="http://www.w3.org/2000/svg"
   xmlns:svg="http://www.w3.org/2000/svg">
  <defs
     id="defs6" />
  <sodipodi:namedview
     id="namedview4"
     pagecolor="#505050"
     bordercolor="#ffffff"
     borderopacity="1"
     inkscape:showpageshadow="0"
     inkscape:pageopacity="0"
     inkscape:pagecheckerboard="1"
     inkscape:deskcolor="#151515"
     showgrid="true"
     inkscape:zoom="0.051770277"
     inkscape:cx="5302.2703"
     inkscape:cy="5920.3856"
     inkscape:window-width="1920"
     inkscape:window-height="991"
     inkscape:window-x="-9"
     inkscape:window-y="-9"
     inkscape:window-maximized="1"
     inkscape:current-layer="svg2"
     inkscape:document-units="cm">
    <inkscape:grid
       type="xygrid"
       id="grid184"
       originx="5291.3386"
       originy="5291.3386"
       units="cm"
       spacingx="188.97638"
       spacingy="188.97638"
       empspacing="2" />
  </sodipodi:namedview>
  <path
     id="rect404"
     style="fill:#000000;stroke:#000000;stroke-width:37.79527559;paint-order:markers fill stroke;stop-color:#000000;stroke-opacity:1;stroke-dasharray:none"
     d="M 377.95312,377.95312 V 10204.725 H 10204.725 V 377.95312 Z M 755.90625,755.90625 H 9826.7715 V 9826.7715 H 755.90625 Z" />
  <path
     id="rect531"
     style="fill:#000000;stroke:#000000;stroke-width:37.79527559;paint-order:markers fill stroke;stop-color:#000000;stroke-opacity:1;stroke-dasharray:none"
     d="M 3023.6211 3023.6211 L 3023.6211 7559.0547 L 7559.0547 7559.0547 L 7559.0547 3023.6211 L 3023.6211 3023.6211 z M 3401.5742 3401.5742 L 7181.1016 3401.5742 L 7181.1016 7181.1016 L 3401.5742 7181.1016 L 3401.5742 3401.5742 z " />
  <path
     id="rect647"
     style="fill:#ff6600;stroke:#000000;stroke-width:37.79527559;paint-order:markers fill stroke;stop-color:#000000;stroke-opacity:1;stroke-dasharray:none"
     d="M 377.95312 0 L 377.16406 0.7890625 L 0.7890625 377.16406 L 0 377.95312 L 0.7890625 378.74219 L 0.7890625 4913.3867 L 0 4913.3867 L 0 5669.291 L 0.7890625 5669.291 L 0.7890625 10203.936 L 0 10204.725 L 0.7890625 10205.514 L 377.95312 10582.678 L 10204.725 10582.678 L 10582.678 10204.725 L 10582.678 377.95312 L 10205.514 0.7890625 L 10204.725 0 L 10203.936 0.7890625 L 5669.291 0.7890625 L 5669.291 0 L 4913.3867 0 L 4913.3867 0.7890625 L 378.74219 0.7890625 L 377.95312 0 z M 755.90625 377.95312 L 4913.3867 377.95312 L 4913.3867 1700.7871 L 4724.4102 1889.7637 L 4913.3867 2078.7402 L 4913.3867 3590.5508 L 4724.4102 3779.5273 L 4913.3867 3968.5039 L 4913.3867 4535.4336 L 4535.4336 4157.4805 L 4535.4336 3779.5273 L 4157.4805 3779.5273 L 2645.6699 2267.7168 L 2645.6699 1889.7637 L 2267.7168 1889.7637 L 755.90625 377.95312 z M 5669.291 377.95312 L 9826.7715 377.95312 L 8314.9609 1889.7637 L 7937.0078 1889.7637 L 7937.0078 2267.7168 L 6425.1973 3779.5273 L 6047.2441 3779.5273 L 6047.2441 4157.4805 L 5669.291 4535.4355 L 5669.291 3968.5039 L 5858.2676 3779.5273 L 5669.291 3590.5508 L 5669.291 2078.7402 L 5858.2676 1889.7637 L 5669.291 1700.7871 L 5669.291 377.95312 z M 377.95312 755.90625 L 1889.7637 2267.7168 L 1889.7637 2645.6699 L 2267.7168 2645.6699 L 3779.5273 4157.4805 L 3779.5273 4535.4336 L 4157.4805 4535.4336 L 4535.4336 4913.3867 L 3968.5039 4913.3867 L 3779.5273 4724.4102 L 3590.5508 4913.3867 L 2078.7402 4913.3867 L 1889.7637 4724.4102 L 1700.7871 4913.3867 L 377.95312 4913.3867 L 377.95312 755.90625 z M 10204.725 755.90625 L 10204.725 4913.3867 L 8881.8906 4913.3867 L 8692.9141 4724.4102 L 8503.9375 4913.3867 L 6992.1289 4913.3867 L 6803.1504 4724.4082 L 6614.1719 4913.3867 L 6047.2461 4913.3867 L 6425.1973 4535.4336 L 6803.1504 4535.4336 L 6803.1504 4157.4805 L 8314.9609 2645.6699 L 8692.9141 2645.6699 L 8692.9141 2267.7168 L 10204.725 755.90625 z M 377.95312 5669.291 L 1700.7871 5669.291 L 1889.7637 5858.2676 L 2078.7402 5669.291 L 3590.5508 5669.291 L 3779.5273 5858.2676 L 3968.5039 5669.291 L 4535.4355 5669.291 L 4157.4805 6047.2441 L 3779.5273 6047.2441 L 3779.5273 6425.1973 L 2267.7168 7937.0078 L 1889.7637 7937.0078 L 1889.7637 8314.9609 L 377.95312 9826.7715 L 377.95312 5669.291 z M 6047.2441 5669.291 L 6614.1738 5669.291 L 6803.1504 5858.2676 L 6992.127 5669.291 L 8503.9375 5669.291 L 8692.9141 5858.2676 L 8881.8906 5669.291 L 10204.725 5669.291 L 10204.725 9826.7715 L 8692.9141 8314.9609 L 8692.9141 7937.0078 L 8314.9609 7937.0078 L 6803.1504 6425.1973 L 6803.1504 6047.2441 L 6425.1973 6047.2441 L 6047.2441 5669.291 z M 4913.3867 6047.2441 L 4913.3867 6614.1738 L 4724.4102 6803.1504 L 4913.3867 6992.127 L 4913.3867 8503.9375 L 4724.4102 8692.9141 L 4913.3867 8881.8906 L 4913.3867 10204.725 L 755.90625 10204.725 L 2267.7168 8692.9141 L 2645.6699 8692.9141 L 2645.6699 8314.9609 L 4157.4805 6803.1504 L 4535.4336 6803.1504 L 4535.4336 6425.1973 L 4913.3867 6047.2441 z M 5669.291 6047.2441 L 6047.2441 6425.1973 L 6047.2441 6803.1504 L 6425.1973 6803.1504 L 7937.0078 8314.9609 L 7937.0078 8692.9141 L 8314.9609 8692.9141 L 9826.7715 10204.725 L 5669.291 10204.725 L 5669.291 8881.8906 L 5858.2676 8692.9141 L 5669.291 8503.9375 L 5669.291 6992.1289 L 5858.2695 6803.1504 L 5669.291 6614.1719 L 5669.291 6047.2441 z " />
</svg>
