<?xml version="1.0" encoding="UTF-8" standalone="no"?>
<svg
   version="1.1"
   id="svg2"
   sodipodi:docname="water.svg"
   width="280cm"
   height="280cm"
   inkscape:version="1.2.1 (9c6d41e410, 2022-07-14)"
   inkscape:export-filename="water.png"
   inkscape:export-xdpi="96"
   inkscape:export-ydpi="96"
   xmlns:inkscape="http://www.inkscape.org/namespaces/inkscape"
   xmlns:sodipodi="http://sodipodi.sourceforge.net/DTD/sodipodi-0.dtd"
   xmlns="http://www.w3.org/2000/svg"
   xmlns:svg="http://www.w3.org/2000/svg">
  <defs
     id="defs6" />
  <sodipodi:namedview
     id="namedview4"
     pagecolor="#505050"
     bordercolor="#ffffff"
     borderopacity="1"
     inkscape:showpageshadow="0"
     inkscape:pageopacity="0"
     inkscape:pagecheckerboard="1"
     inkscape:deskcolor="#151515"
     showgrid="true"
     inkscape:zoom="0.073232887"
     inkscape:cx="3051.9075"
     inkscape:cy="5304.9936"
     inkscape:window-width="1920"
     inkscape:window-height="991"
     inkscape:window-x="-9"
     inkscape:window-y="-9"
     inkscape:window-maximized="1"
     inkscape:current-layer="g750"
     inkscape:document-units="cm">
    <inkscape:grid
       type="xygrid"
       id="grid184"
       originx="5291.3386"
       originy="5291.3386"
       units="cm"
       spacingx="188.97638"
       spacingy="188.97638"
       empspacing="2" />
  </sodipodi:namedview>
  <rect
     style="fill:#502d16;stroke:#000000;stroke-width:18.1236;paint-order:markers fill stroke;stop-color:#000000"
     id="rect394"
     width="10582.677"
     height="10582.678"
     x="-3.9999999e-05"
     y="-0.00031296388" />
  <path
     id="rect404"
     style="fill:#000000;stroke:#000000;stroke-width:37.79527559;paint-order:markers fill stroke;stop-color:#000000;stroke-opacity:1;stroke-dasharray:none"
     d="M 377.95312,377.95312 V 10204.725 H 10204.725 V 377.95312 Z M 755.90625,755.90625 H 9826.7715 V 9826.7715 H 755.90625 Z" />
  <path
     id="rect531"
     style="fill:#000000;stroke:#000000;stroke-width:37.79527559;paint-order:markers fill stroke;stop-color:#000000;stroke-opacity:1;stroke-dasharray:none"
     d="M 3023.6211 3023.6211 L 3023.6211 7559.0547 L 7559.0547 7559.0547 L 7559.0547 3023.6211 L 3023.6211 3023.6211 z M 3401.5742 3401.5742 L 7181.1016 3401.5742 L 7181.1016 7181.1016 L 3401.5742 7181.1016 L 3401.5742 3401.5742 z " />
  <g
     id="g750"
     transform="matrix(2.6002571,0,0,2.6002571,-8467.5009,-9980.2048)">
    <g
       id="g455"
       style="stroke:none">
      <path
         id="path738"
         style="font-variation-settings:normal;vector-effect:none;fill:#ffffff;fill-opacity:1;stroke:none;stroke-width:15.6524;stroke-linecap:butt;stroke-linejoin:miter;stroke-miterlimit:4;stroke-dasharray:none;stroke-dashoffset:0;stroke-opacity:1;-inkscape-stroke:none;paint-order:markers fill stroke;stop-color:#000000"
         d="m 5365.5249,5859.2335 a 1700.7872,850.39362 0 0 1 1626.5996,849.584 1700.7872,850.39362 0 0 1 -1700.7871,850.3946 1700.7872,850.39362 0 0 1 -1700.7871,-850.3946 1700.7872,850.39362 0 0 1 1478.789,-843.1191 1889.7638,944.8819 0 0 0 -1667.7656,937.6074 1889.7638,944.8819 0 0 0 1889.7637,944.8828 1889.7638,944.8819 0 0 0 1889.7637,-944.8828 1889.7638,944.8819 0 0 0 -1815.5762,-944.0723 z" />
      <path
         id="path743"
         style="font-variation-settings:normal;vector-effect:none;fill:#ffffff;fill-opacity:1;stroke:none;stroke-width:15.6524;stroke-linecap:butt;stroke-linejoin:miter;stroke-miterlimit:4;stroke-dasharray:none;stroke-dashoffset:0;stroke-opacity:1;-inkscape-stroke:none;paint-order:markers fill stroke;stop-color:#000000"
         d="m 5335.9015,6160.1048 a 1021.6393,510.81968 0 0 1 977.0759,510.3333 1021.6393,510.81968 0 0 1 -1021.6393,510.8203 1021.6393,510.81968 0 0 1 -1021.6393,-510.8203 1021.6393,510.81968 0 0 1 888.2881,-506.45 1135.155,567.57748 0 0 0 -1001.8037,563.2078 1135.155,567.57748 0 0 0 1135.1549,567.578 1135.155,567.57748 0 0 0 1135.1549,-567.578 1135.155,567.57748 0 0 0 -1090.5915,-567.0911 z" />
      <path
         id="path348"
         style="font-variation-settings:normal;vector-effect:none;fill:#ffffff;fill-opacity:1;stroke:none;stroke-width:15.6524;stroke-linecap:butt;stroke-linejoin:miter;stroke-miterlimit:4;stroke-dasharray:none;stroke-dashoffset:0;stroke-opacity:1;-inkscape-stroke:none;paint-order:markers fill stroke;stop-color:#000000"
         d="m 5290.9482,6309.146 c -206.5705,-34.26 -701.0201,-85.5515 -363.7701,-938.5574 146.1319,-369.6113 218.262,-457.1826 363.7701,-1314.3998 145.508,857.2172 218.418,944.7885 363.7701,1314.3998 335.6918,853.6203 -176.1108,929.7965 -363.7701,938.5574 z"
         sodipodi:nodetypes="cscsc" />
    </g>
  </g>
</svg>
